<?xml version="1.0" encoding="UTF-8" standalone="no"?>
<svg
   version="1.2"
   viewBox="0 0 500 500"
   width="500"
   height="500"
   id="svg83"
   sodipodi:docname="LogoLFDBlanco.svg"
   inkscape:version="1.1.2 (0a00cf5339, 2022-02-04)"
   xmlns:inkscape="http://www.inkscape.org/namespaces/inkscape"
   xmlns:sodipodi="http://sodipodi.sourceforge.net/DTD/sodipodi-0.dtd"
   xmlns="http://www.w3.org/2000/svg"
   xmlns:svg="http://www.w3.org/2000/svg">
  <defs
     id="defs87" />
  <sodipodi:namedview
     id="namedview85"
     pagecolor="#ffffff"
     bordercolor="#666666"
     borderopacity="1.0"
     inkscape:pageshadow="2"
     inkscape:pageopacity="0.0"
     inkscape:pagecheckerboard="0"
     showgrid="false"
     inkscape:zoom="2.0845508"
     inkscape:cx="547.12027"
     inkscape:cy="471.32457"
     inkscape:window-width="1920"
     inkscape:window-height="946"
     inkscape:window-x="0"
     inkscape:window-y="27"
     inkscape:window-maximized="1"
     inkscape:current-layer="svg83" />
  <style
     id="style65">.a{fill:#fff}</style>
  <path
     id="path67"
     class="a"
     d="m 831.99994,106.95762 v 250 250 h 499.99996 v -500 z m 166.86913,175.69141 c 0.0575,-0.004 0.10845,0.0125 0.14844,0.0605 1.09529,1.31674 0.72781,1.53978 0.16797,2.4043 -0.38931,0.62431 -0.70279,1.29135 -1.04297,1.94336 0.26834,0.0907 0.54508,0.17613 0.76953,0.31836 0.38274,-0.31193 0.76699,-0.62201 1.14846,-0.93555 0.059,-0.0482 0.1173,-0.0962 0.1758,-0.14453 0.016,-0.0433 0.032,-0.0855 0.057,-0.125 0.2119,-0.343 0.6208,-0.48147 0.9375,-0.69922 0.01,-0.008 0.018,-0.0158 0.027,-0.0234 0.1072,-0.0886 0.2325,-0.36825 0.3242,-0.26367 0.199,0.22688 0.3344,0.49636 0.457,0.77539 0.226,0.15829 0.4402,0.32719 0.6113,0.54102 0.075,0.0941 -0.148,0.15507 -0.2695,0.22851 -0.076,0.0805 -0.1613,0.14224 -0.2519,0.19922 -0.1982,0.16449 -0.3976,0.32765 -0.5957,0.49219 -0.2491,0.55903 -0.2778,0.59143 -0.711,1.36328 -0.793,1.16275 -1.65999,2.27063 -2.6035,3.31445 -0.13354,0.14774 -0.2648,0.3001 -0.41602,0.42969 -0.46201,0.3959 -0.54057,0.40855 -1.00585,0.65039 -0.0789,0.0666 -0.0933,0.0856 -0.13086,0.1211 0.0682,-0.0835 0.14211,-0.20664 0.13671,-0.32813 -0.005,-0.1048 -0.0481,-0.28198 -0.0996,-0.43945 -0.0388,0.0665 -0.0793,0.13612 -0.12109,0.20703 -0.003,0.0248 -0.004,0.0495 -0.008,0.0742 -0.008,0.0568 0.008,0.19807 -0.041,0.16797 -0.0367,-0.0226 -0.054,-0.0392 -0.0859,-0.0606 -0.023,0.0219 -0.045,0.0448 -0.0684,0.0664 -0.1133,1.13706 0.6728,0.13758 0.0273,0.87304 -0.21817,0.0491 -0.44101,0.1848 -0.6582,0.2168 -0.0566,0.12443 -0.1116,0.23879 -0.27539,0.55664 -0.0367,0.0713 -0.0522,0.24674 -0.10938,0.23047 -0.0135,0.42291 -0.0118,0.8471 -0.0566,1.26758 -0.10753,1.00802 -0.65815,2.73016 -0.89648,3.51562 -0.5372,1.77039 -0.40255,1.35087 -1.08789,2.86914 -0.36445,0.50584 -0.58752,1.06508 -1.52344,0.6875 -0.31959,-0.12894 -0.4311,-0.55361 -0.54492,-0.8789 -0.15442,-0.44127 0.19729,-0.58111 0.15039,-0.95899 v -0.0781 c -0.009,-0.96166 0.58909,-1.33514 1.07812,-1.16797 0.20756,-0.63777 0.38466,-1.2686 0.58203,-1.94531 -0.11737,0.18537 -0.23568,0.37013 -0.34765,0.55859 -0.0244,0.0411 -0.0464,0.0836 -0.0703,0.125 -0.0209,0.0473 -0.044,0.0942 -0.0625,0.14258 -0.0399,0.10436 -0.0573,0.2162 -0.0859,0.32422 -0.31497,0.54552 -0.53614,1.25596 -1.59571,0.60937 -0.6194,-0.37798 -0.14108,-1.26243 0.17969,-1.7832 -0.66512,0.811 -1.32623,1.62531 -2.01367,2.41797 -0.61787,0.54019 -0.43886,0.52283 -1.41211,-1.03906 -0.0644,-0.10336 0.16674,-0.18534 0.21094,-0.29883 0.0207,-0.0532 -0.0273,-0.11097 -0.0293,-0.16797 -0.003,-0.0818 -0.0148,-0.1694 0.0137,-0.24609 0.0971,-0.26189 0.23976,-0.50347 0.35938,-0.75586 0.28794,-0.30206 0.36458,-0.37792 0.4414,-0.48633 -0.18178,0.0655 -0.36584,0.12626 -0.55078,0.17969 -0.0975,0.0282 -0.18577,-0.0658 -0.26562,-0.2129 -0.0875,0.0992 -0.17193,0.22655 -0.26172,0.31055 h -0.002 c -0.48901,0.88426 -1.02868,1.87493 -1.16016,2.12695 -0.006,0.0121 -0.0114,0.0249 -0.0176,0.0371 -0.0781,0.2723 -0.15642,0.54523 -0.23437,0.81836 -0.0938,0.33849 -0.18022,0.67922 -0.28125,1.01563 -0.24878,0.82841 -0.33763,1.10781 -1.82032,0.23047 -0.19644,-0.11626 0.0376,-0.45515 0.0664,-0.68164 0.0808,-0.63551 0.15424,-0.65001 0.4375,-1.43164 0.08,-0.1801 0.15316,-0.36247 0.23633,-0.54102 0.006,-0.0207 0.0116,-0.0418 0.0176,-0.0625 -0.18776,-0.14264 -0.2678,-0.30873 -0.28321,-0.50391 -0.21165,-0.10034 -0.40949,-0.2493 -0.58398,-0.39843 -0.12777,-0.1092 -0.11633,-0.31808 -0.14063,-0.48438 -0.0934,-0.64018 -0.001,-1.28869 0.14844,-1.91992 1.4e-4,-0.72474 10e-4,-1.01886 0.10547,-2.27539 0.0261,-0.31525 0.0287,-0.63649 0.10547,-0.94336 0.0873,-0.34893 0.21936,-0.68742 0.38281,-1.00781 0.45613,-0.60791 0.31736,-0.33759 0.50586,-0.76367 -0.058,-0.31353 -0.018,-0.0534 0.35156,-0.79688 0.2224,-0.4474 0.41435,-0.78118 0.70508,-1.06836 -0.002,-0.0543 -0.008,-0.10984 -0.008,-0.16406 0.003,-5.3e-4 0.006,-9.5e-4 0.01,-0.002 -6.3e-4,-0.0417 -9.5e-4,-0.0833 -0.002,-0.125 -10e-4,-0.0197 -0.0234,-0.0606 -0.004,-0.0586 0.0776,0.006 0.1549,0.0176 0.23242,0.0254 0.0201,-0.71076 0.12996,-0.78997 0.69726,-2.0039 0.42448,-0.7315 0.56717,-0.90735 0.85547,-1.61719 0.0386,-0.095 0.10793,-0.54706 0.14453,-0.53906 0.56368,0.12363 1.10303,0.34106 1.6543,0.51171 -0.0442,0.81856 -6.2e-4,0.35786 -0.33984,1.79883 -0.31789,1.35041 -0.40348,1.57388 -0.87696,2.70313 0.02,0.0575 0.0349,0.11927 0.0449,0.18554 0.10674,0.0336 0.21349,0.0677 0.32032,0.10157 0.0743,-0.004 0.14878,-0.007 0.22265,0 0.28628,0.0276 0.59854,0.12724 0.89453,0.25195 0.007,-0.005 0.023,-0.0227 0.0293,-0.0273 0.009,-0.004 0.0182,-0.009 0.0273,-0.0137 -0.0218,-0.0248 -0.049,-0.0521 -0.084,-0.0801 0.69793,-0.84623 0.93661,-1.13199 1.61328,-1.96289 0.16302,-0.20017 0.32573,-0.40102 0.48828,-0.60157 0.0687,-0.10953 0.13984,-0.21767 0.20703,-0.32812 0.19691,-0.32365 0.38469,-0.65197 0.56641,-0.98438 0.0315,-0.0577 0.0537,-0.12042 0.0781,-0.18164 0.0541,-0.1776 0.10267,-0.25548 0.2207,-0.22851 h 0.002 c 0.25339,-0.0539 0.65949,0.19144 0.96094,0.49218 0.13481,0.0691 0.2735,0.14198 0.44531,0.22266 0.0477,0.0224 -0.0336,0.10014 -0.0547,0.14844 -0.015,0.0343 -0.0319,0.0672 -0.0469,0.10156 0.005,0.0116 0.0117,0.0238 0.0156,0.0352 -0.0386,0.23484 -0.14044,0.47623 -0.27343,0.71484 0.84168,-1.24023 1.13371,-1.63183 2.8457,-3.41016 0.41034,-0.42624 0.83659,-0.84719 1.31641,-1.19336 0.15213,-0.10973 0.38019,-0.31141 0.55273,-0.32421 z m 0.5918,1.58203 c -0.002,-0.002 -0.005,-0.002 -0.01,0.002 -0.0444,0.0375 -0.0867,0.0774 -0.13086,0.11523 0.0133,0.007 0.0255,0.0167 0.0391,0.0234 0.0431,0.0215 0.11301,-0.1269 0.10156,-0.14062 z m -5.79492,4.06054 c -0.10271,0.13087 -0.20552,0.25726 -0.3086,0.37891 -0.0276,0.0435 -0.0543,0.0874 -0.082,0.13086 0.017,-0.007 0.0423,-0.0173 0.0586,-0.0234 0.1349,-0.19624 0.21919,-0.3204 0.33204,-0.48633 z m 1.61132,0.5918 c -0.0541,0.0801 -0.10731,0.16106 -0.16015,0.24219 0.0124,0.002 0.0211,0.007 0.0332,0.01 0.0423,-0.0839 0.085,-0.16773 0.12695,-0.25195 z m 0.12305,5.40039 c -0.002,10e-4 -0.003,0.008 -0.004,0.0215 -0.0149,0.1478 -0.0252,0.29488 -0.0312,0.44336 0.0318,-0.0425 0.0754,-0.0877 0.0937,-0.12696 -0.0187,-0.0927 -0.0449,-0.34733 -0.0586,-0.33789 z m -7.37891,2.79492 c -0.008,0.0295 -0.0185,0.0586 -0.0273,0.0879 0.0234,-0.0396 0.0359,-0.11888 0.0273,-0.0879 z" />
  <path
     id="path69"
     d="M 239.16211,117.48828 C 234.89961,117.57578 231.5,117.75 230,118 c -3,0.5 -9.1,1.80039 -13.5,2.90039 -4.4,1.1 -12.1,3.59961 -17,5.59961 -4.9,2 -11.9,5.4 -15.5,7.5 -3.6,2.1 -10.1,6.49922 -14.5,9.69922 -4.4,3.3 -11.8,10.00039 -16.5,14.90039 -4.7,4.9 -10.59922,12.10039 -13.19922,15.90039 -2.5,3.9 -6.70117,11.1 -9.20117,16 -2.5,4.9 -4.59961,9.99922 -4.59961,11.19922 0,1.3 0.60078,2.30078 1.30078,2.30078 0.6,0.1 1.69883,-0.49922 2.29883,-1.19922 0.6,-0.7 2.2,-4.00078 3.5,-7.30078 1.3,-3.3 5.4,-10.5 9,-16 3.7,-5.5 9.59961,-13.2 13.09961,-17 3.6,-3.8 9.60039,-9.59922 13.40039,-12.69922 3.8,-3.1 10.70039,-7.90117 15.40039,-10.70117 4.7,-2.8 13,-6.9 18.5,-9 5.5,-2.2 14.7,-4.99883 20.5,-6.29883 8.7,-1.9 13.4,-2.30078 27,-2.30078 12.3,0 18.7,0.50039 25,1.90039 4.7,1 11.9,2.99883 16,4.29883 4.1,1.4 11.6,4.5 16.5,7 4.9,2.5 12.4,6.80117 16.5,9.70117 4.1,2.8 11.5,9.19961 16.5,14.09961 5.4,5.4 11.8,13.2 16,19.5 3.9,5.8 8.6,14.00078 10.5,18.30078 2.5,5.5 4.00078,7.79922 5.30078,7.69922 0.9,0 1.69922,-0.7 1.69922,-1.5 0,-0.8 -1.79961,-5.40078 -4.09961,-10.30078 -2.2,-4.8 -6.60117,-12.49922 -9.70117,-17.19922 -3.1,-4.7 -10.19922,-12.99961 -15.69922,-18.59961 -5.5,-5.5 -13.4,-12.40078 -17.5,-15.30078 -4.1,-2.9 -11.3,-7.2 -16,-9.5 -4.7,-2.4 -11.6,-5.50039 -15.5,-6.90039 -3.9,-1.5 -10.8,-3.59883 -15.5,-4.79883 -6.6,-1.6 -12.5,-2.10039 -26.5,-2.40039 -4.95,-0.1 -10.07539,-0.0992 -14.33789,-0.0117 z M 250.5,136 c -3,0 -5.5,0.4 -5.5,1 0,0.6 0.9,1 2,1 1.8,0 2,0.7 2,6 0,4.7 0.3,6 1.5,6 1.2,0 1.5,-1.3 1.5,-6 0,-5.3 0.2,-6 2,-6 1.1,0 2,-0.4 2,-1 0,-0.6 -2.5,-1 -5.5,-1 z m 19.2207,1.59375 c -0.61406,0.16875 -1.04492,1.18203 -1.41992,3.20703 -0.3,2 -0.70117,4.99922 -0.70117,6.69922 -0.1,1.7 0.30039,3.10078 0.90039,3.30078 0.6,0.2 1.49922,-2.3 2.19922,-5.5 0.7,-3.2 1.20117,-6.10039 1.20117,-6.40039 0,-0.4 -0.7,-0.90117 -1.5,-1.20117 -0.25,-0.125 -0.475,-0.16172 -0.67969,-0.10547 z m -43.39062,0.60547 c -0.88594,0.2625 -1.28047,1.425 -1.73047,4.5 -0.4,2.6 -0.89961,6 -1.09961,7.5 -0.4,2 -0.1,2.80078 1,2.80078 0.8,0 1.5,-0.7 1.5,-1.5 0,-0.8 1.20078,-2 2.80078,-2.5 2.2,-0.9 2.8,-0.8 3.5,0.5 0.4,0.8 1.39922,1.5 2.19922,1.5 0.8,0 1.5,-0.30078 1.5,-0.80078 0,-0.4 -1.50078,-3.19922 -3.30078,-6.19922 -2,-3.3 -4.09883,-5.60078 -5.29883,-5.80078 -0.425,-0.075 -0.775,-0.0875 -1.07031,0 z m 59.92773,3.16797 c -0.10156,0.0141 -0.1582,0.0578 -0.1582,0.13281 -0.1,0.3 -1.19961,3.4 -2.59961,7 -2.2,5.8 -2.30078,6.49922 -0.80078,6.19922 1,-0.1 2.20078,-1.7 2.80078,-3.5 0.5,-1.8 1.30078,-3.19922 1.80078,-3.19922 0.4,0 1,2.3 1.5,5 0.4,3 1.29922,5.2 2.19922,5.5 0.8,0.3 1.79961,0.20078 2.09961,-0.19922 0.4,-0.5 1.60117,-3.30078 2.70117,-6.30078 1.2,-3 1.79844,-5.80078 1.39844,-6.30078 C 296.79922,145.29922 296.3,145 296,145 c -0.3,0 -1.09922,1.6 -1.69922,3.5 -0.7,1.9 -1.70078,3.5 -2.30078,3.5 -0.6,0 -1.2,-2 -1.5,-4.5 -0.3,-3.1 -1.10039,-4.8 -2.40039,-5.5 -0.825,-0.45 -1.53711,-0.675 -1.8418,-0.63281 z M 202.80078,145 c -0.4,0 -0.90078,0.4 -1.30078,1 -0.3,0.6 0.49922,3.39922 1.69922,6.19922 1.2,2.9 2.40117,5.70156 2.70117,6.10156 0.3,0.4 2.30039,0.0988 4.40039,-0.70117 2,-0.9 3.69922,-1.99961 3.69922,-2.59961 0,-0.6 -0.79922,-0.79961 -1.69922,-0.59961 -1,0.2 -2.40156,0.49922 -3.10156,0.69922 -0.9,0.3 -2.2,-1.60039 -3.5,-4.90039 -1.2,-2.9 -2.49844,-5.29922 -2.89844,-5.19922 z M 241.75,158.40039 c -3.075,0.025 -5.4,0.0992 -6.25,0.19922 -1.7,0.3 -6.8,1.69961 -11.5,3.09961 -4.7,1.4 -11.9,4.20078 -16,6.30078 -4.1,2.1 -10.40039,5.99961 -13.90039,8.59961 -3.6,2.7 -9.2,7.89961 -12.5,11.59961 -3.4,3.7 -8.00039,9.80117 -10.40039,13.70117 -2.3,3.9 -5.49961,10.40039 -7.09961,14.40039 -1.6,3.9 -3.69961,10.99922 -4.59961,15.69922 -1.4,6.6 -1.69922,11.4 -1.19922,21.5 0.4,10 1.09922,15.1 3.19922,22 1.4,4.9 4.50078,12.6 6.80078,17 2.3,4.4 6.79844,11.30078 9.89844,15.30078 3.2,3.9 8.70117,9.6 12.20117,12.5 3.5,2.8 9.19922,6.9 12.69922,9 3.5,2 9.89961,5.09922 14.09961,6.69922 4.3,1.7 12,3.69961 17,4.59961 6.7,1.2 12.40078,1.5 20.30078,1 6.1,-0.3 13.7,-1.29961 17,-2.09961 3.3,-0.9 9.4,-2.99961 13.5,-4.59961 4.1,-1.7 11.1,-5.40039 15.5,-8.40039 4.4,-2.9 11.6,-9.09922 16,-13.69922 4.4,-4.7 10.09922,-12.00039 12.69922,-16.40039 2.6,-4.3 6.00117,-12.00039 7.70117,-16.90039 1.6,-4.9 3.49922,-13.1 4.19922,-18 1,-6.9 0.99963,-11.4 0.0996,-19.5 -0.6,-5.8 -1.79922,-13.2 -2.69922,-16.5 -0.9,-3.3 -3.30078,-9.6 -5.30078,-14 -2.1,-4.4 -5.69844,-10.7 -7.89844,-14 -2.2,-3.3 -6.90039,-8.90039 -10.40039,-12.40039 -3.5,-3.5 -9.10039,-8.29922 -12.40039,-10.69922 -3.3,-2.3 -9.4,-5.80117 -13.5,-7.70117 -4.1,-1.9 -10.9,-4.49922 -15,-5.69922 -5.8,-1.7 -10.7,-2.3 -21.5,-2.5 -3.85,-0.1 -7.675,-0.12463 -10.75,-0.0996 z M 347.5,282 c -0.3,0 -0.5,0.60078 -0.5,1.30078 0,0.6 0.6,2.09922 1.5,3.19922 0.8,1.1 1.20078,2.30078 0.80078,2.80078 -0.3,0.4 -1.7,0.69922 -3,0.69922 -1.2,0 -2.50078,0.7 -2.80078,1.5 -0.4,1.2 0.29922,1.40039 4.19922,0.90039 3,-0.4 5.70078,-0.2 7.30078,0.5 2,1 2.7,0.99963 3.5,0.0996 0.7,-0.9 0.5,-1.40078 -0.5,-1.80078 -0.8,-0.2 -3.40078,-2.39883 -5.80078,-4.79883 C 349.89922,284.00041 347.8,282 347.5,282 Z m -196.80078,1.09961 c -0.1,0 -2.99844,1.30117 -6.39844,2.70117 -3.5,1.5 -6.10039,3.09922 -5.90039,3.69922 0.1,0.6 1.59922,0.89922 3.19922,0.69922 1.9,-0.2 3.19961,0.20117 3.59961,1.20117 0.5,0.9 1.20078,1.59961 1.80078,1.59961 0.6,0 0.8,-1.1 0.5,-2.5 -0.3,-1.5 -7.8e-4,-2.79961 0.69922,-3.09961 0.8,-0.4 2,0.39922 3,1.69922 0.9,1.3 1.90078,2.20039 2.30078,1.90039 0.3,-0.3 -0.1,-2.19922 -1,-4.19922 -0.8,-2.1 -1.60078,-3.80117 -1.80078,-3.70117 z m -23.46094,12.32617 c -0.3375,0.025 -0.63789,0.12344 -0.83789,0.27344 -0.4,0.4 -0.69961,1.30117 -0.59961,2.20117 0.1,0.9 1.99883,5.39961 4.29883,10.09961 2.2,4.7 6.50039,12.1 9.40039,16.5 2.9,4.4 8.50078,11.4 12.30078,15.5 3.8,4.1 9.99883,9.99961 13.79883,13.09961 3.8,3.2 10.70039,8.00078 15.40039,10.80078 4.7,2.8 12.3,6.79922 17,8.69922 4.7,2 13.7,5.00117 20,6.70117 10.9,2.9 12.5,2.99961 31,3.09961 17.7,0.1 20.5,-0.2 30.5,-2.5 6.1,-1.5 15.9,-4.70078 22,-7.30078 6.1,-2.5 15.1,-7.20039 20,-10.40039 4.9,-3.2 12.10039,-8.49883 15.90039,-11.79883 3.8,-3.2 9.79883,-9.30039 13.29883,-13.40039 3.5,-4.1 8.10156,-10 10.10156,-13 2,-3 5.8,-9.8 8.5,-15 2.6,-5.2 4.69922,-10.29922 4.69922,-11.19922 0,-1 -0.80078,-1.80078 -1.80078,-1.80078 -1.2,-0.1 -2.69922,2.19922 -5.19922,7.69922 -1.9,4.3 -6.50078,12.4 -10.30078,18 -4.1,6.3 -10.3,13.90156 -16,19.60156 -5.1,5 -13.09922,11.69883 -17.69922,14.79883 -4.7,3.1 -11.9,7.40039 -16,9.40039 -4.1,2.1 -12,5.2 -17.5,7 -5.5,1.8 -13.4,3.89961 -17.5,4.59961 -4.3,0.8 -14,1.40078 -23,1.30078 -11,0 -18,-0.60078 -24,-1.80078 -4.7,-1 -12.1,-3.09961 -16.5,-4.59961 -4.4,-1.5 -12.5,-5.00078 -18,-7.80078 -5.5,-2.8 -13.8,-8 -18.5,-11.5 -4.7,-3.5 -11.80078,-9.99883 -15.80078,-14.29883 -4.1,-4.3 -9.9,-11.70039 -13,-16.40039 -3.2,-4.7 -7.49922,-12.50078 -9.69922,-17.30078 -2.2,-4.7 -4.49922,-8.89961 -5.19922,-9.09961 -0.35,-0.15 -0.725,-0.19883 -1.0625,-0.17383 z M 157.90039,302 c -1.4,0 -3.80078,0.89961 -5.30078,2.09961 -1.9,1.4 -2.79922,2.90117 -2.69922,4.70117 0,1.5 0.79961,3.7 1.59961,5 1,1.5 2.49922,2.19922 4.69922,2.19922 1.8,0 4.00039,-0.60078 4.90039,-1.30078 0.9,-0.7 2.10117,-2.19844 2.70117,-3.39844 0.7,-1.3 0.9,-3.1 0.5,-4 -0.3,-1 -1.30117,-2.60156 -2.20117,-3.60156 -0.9,-1 -2.79922,-1.79922 -4.19922,-1.69922 z m 181.5,1.19922 c -1.3,-0.2 -3.10078,0.60039 -4.30078,1.90039 -1.2,1.3 -2.19922,2.80078 -2.19922,3.30078 0,0.6 2.39883,2.79883 5.29883,4.79883 3.7,2.6 5.60078,3.50117 6.30078,2.70117 0.7,-0.7 0.2,-1.60078 -1.5,-2.80078 -1.7,-1.3 -2.10078,-2 -1.30078,-2.5 0.7,-0.3 2.3,-0.3 3.5,0 1.5,0.3 2.90078,-0.0996 3.80078,-1.09961 1.4,-1.4 1.2,-1.6 -2,-1.5 -2.7,0 -3.7,-0.49922 -4.5,-2.19922 -0.6,-1.3 -1.99961,-2.40156 -3.09961,-2.60156 z M 325.19922,318 c -0.5,0 -2,1.20078 -3.5,2.80078 L 319,323.5 l 10,10 c 4.3,-4.2 5.09922,-5.79922 4.69922,-6.19922 -0.4,-0.4 -1.8,-0.2 -3,0.5 -1.5,1 -2.49922,0.99883 -3.19922,0.29883 -0.7,-0.7 -0.39922,-1.59883 0.80078,-2.79883 0.9,-1 1.4,-2.10156 1,-2.60156 -0.5,-0.4 -1.60156,0.1 -2.60156,1 -1.4,1.4 -2,1.50156 -3,0.60156 -0.9,-1 -0.8,-1.6 0.5,-3 1,-1 1.80078,-2.1 1.80078,-2.5 0,-0.5 -0.40078,-0.80078 -0.80078,-0.80078 z m -151,3 c -1.3,0 -3.39922,1.1 -4.69922,2.5 -1.3,1.3 -2.4,3.39922 -2.5,4.69922 0,1.3 0.69922,3.3 1.69922,4.5 1,1.2 2.8,2.40117 4,2.70117 1.6,0.4 3.20039,-0.19961 5.40039,-2.09961 2.2,-2 3.09961,-3.70078 3.09961,-5.80078 0,-2 -0.79883,-3.60078 -2.29883,-4.80078 -1.3,-1 -3.40117,-1.79922 -4.70117,-1.69922 z m 135.97656,9.02539 c -0.2,0 -0.37578,0.32461 -0.67578,0.97461 -0.3,0.8 -0.19961,3.1 0.40039,5 0.5,1.9 0.69883,3.79922 0.29883,4.19922 C 309.79922,340.59922 307.9,339.6 306,338 c -1.9,-1.6 -3.9,-2.70039 -4.5,-2.40039 -0.5,0.3 -0.89922,0.80117 -0.69922,1.20117 0.1,0.4 2.69883,2.69922 5.79883,5.19922 4.4,3.6 5.80117,4.19922 6.70117,3.19922 0.9,-0.9 0.89883,-2.6 -0.20117,-7 C 312.39961,335.09922 311.4,331.8 311,331 c -0.4,-0.65 -0.62422,-0.97461 -0.82422,-0.97461 z M 194,334 c -0.5,0 -1.60078,1.00078 -2.30078,2.30078 -0.8,1.2 -2.4,3.9 -3.5,6 L 186,346 c 3.9,2.3 6.3,3 8,3 2.1,0 3.6,-0.79922 5,-2.69922 1.2,-1.6 2.1,-3.6 2,-4.5 0,-1 -1.4,-3.20078 -3,-4.80078 -1.7,-1.6 -3.4,-3 -4,-3 z m 96.25,7.5625 c -0.325,-0.0625 -0.70078,-0.0629 -1.05078,0.0371 -0.8,0.3 -0.4,2.30039 1.5,6.90039 1.6,3.6 3.4,6.5 4,6.5 0.7,0 1.30078,-0.4 1.30078,-1 0,-0.6 -0.99922,-3.39922 -2.19922,-6.19922 -1.2,-2.9 -2.40078,-5.60039 -2.80078,-5.90039 -0.15,-0.15 -0.425,-0.27539 -0.75,-0.33789 z m -19.38672,6.11328 c -0.15781,-0.0328 -0.31289,-0.0266 -0.46289,0.0234 -0.5,0.2 -0.39961,2.80156 0.40039,6.60156 0.8,3.4 1.59883,6.5 1.79883,7 0.2,0.4 2.20039,0.29922 4.40039,-0.30078 2.2,-0.6 4,-1.4 4,-2 0,-0.6 -1.4,-0.89922 -3,-0.69922 -2.8,0.2 -3.09961,-0.20078 -4.09961,-3.80078 -0.5,-2.2 -1.30117,-4.69961 -1.70117,-5.59961 -0.375,-0.675 -0.8625,-1.12617 -1.33594,-1.22461 z M 230.09961,348 c -2.2,0 -3.00039,0.60078 -3.40039,2.30078 -0.3,1.2 -0.79961,4.3 -1.09961,7 L 225,362 c 6.6,0 8.99961,-0.40078 9.59961,-0.80078 0.6,-0.4 1.60078,-1.69844 2.30078,-2.89844 0.6,-1.3 1.09961,-3.00078 1.09961,-3.80078 0,-0.8 -1.1,-2.6 -2.5,-4 -1.5,-1.5 -3.60039,-2.5 -5.40039,-2.5 z m 26.09961,1.09961 c -0.9,0.1 -2.7,0.3 -4,0.5 -2.1,0.4 -2.2,0.80117 -2,7.20117 L 250.5,363.5 c 6.5,0.4 7.5,0.1 7.5,-1 0,-0.9 -0.9,-1.5 -2.5,-1.5 -1.6,0 -2.5,-0.6 -2.5,-1.5 0,-0.8 1.1,-1.7 2.5,-2 1.4,-0.3 2.5,-0.9 2.5,-1.5 0,-0.6 -1.1,-1 -2.5,-1 -1.6,0 -2.5,-0.6 -2.5,-1.5 0,-0.9 0.9,-1.5 2.5,-1.5 1.6,0 2.5,-0.6 2.5,-1.5 0,-0.8 -0.80078,-1.40039 -1.80078,-1.40039 z" />
  <path
     id="path71"
     class="a"
     d="m 249.14453,162.42383 c -4.5,-0.005 -9.16953,0.20117 -11.64453,0.57617 -3.3,0.6 -9.2,1.89961 -13,3.09961 -3.8,1.2 -9.7,3.49961 -13,5.09961 -3.3,1.7 -8.7,4.90117 -12,7.20117 -3.3,2.2 -8.7,6.79961 -12,10.09961 -3.3,3.3 -8.09922,9.2 -10.69922,13 -2.6,3.9 -5.80117,9.80078 -7.20117,13.30078 -1.4,3.4 -3.59883,9.7 -4.79883,14 -1.8,6.1 -2.20117,10.19922 -2.20117,20.19922 0.1,9.3 0.60117,14.70078 2.20117,21.30078 1.2,4.8 3.5,11.49844 5,14.89844 1.6,3.5 4.59922,9.00078 6.69922,12.30078 2.1,3.3 7.00039,9.30078 10.90039,13.30078 3.9,4.1 9.99961,9.29922 13.59961,11.69922 3.6,2.4 9.4,5.70078 13,7.30078 3.6,1.6 10.3,3.89961 15,5.09961 6.3,1.6 11.6,2.09961 20.5,2.09961 9.6,0 14,-0.5 22,-2.5 5.5,-1.4 12.5,-3.80078 15.5,-5.30078 3,-1.5 8.20039,-4.59922 11.40039,-6.69922 3.3,-2.2 8.2,-6 11,-8.5 2.7,-2.5 7.10039,-7.4 9.90039,-11 2.7,-3.6 6.79922,-10.6 9.19922,-15.5 2.4,-4.9 5.1,-11.7 6,-15 0.9,-3.3 1.89922,-11.6 2.19922,-18.5 0.4,-10 0.10156,-14.4 -1.39844,-22 -1.3,-6 -3.6,-13 -6.5,-19 -2.5,-5.2 -6.5,-12.2 -9,-15.5 -2.5,-3.3 -7.2,-8.5 -10.5,-11.5 -3.2,-3 -8.30078,-7.09922 -11.30078,-9.19922 -3,-2 -8.6,-5.00078 -12.5,-6.80078 -3.9,-1.7 -10.4,-3.99961 -14.5,-5.09961 -4.1,-1.1 -12,-2.10039 -17.5,-2.40039 -1.375,-0.05 -2.85547,-0.0746 -4.35547,-0.0762 z m -90.84375,142.77539 c -1,-0.2 -2.70117,0.5 -3.70117,1.5 -0.9,1 -1.60039,2.70078 -1.40039,3.80078 0.2,1.3 1.20078,2.10078 2.80078,2.30078 1.6,0.2 3.3,-0.50078 4.5,-1.80078 1.6,-1.7 1.80039,-2.50078 0.90039,-3.80078 -0.6,-0.9 -1.99961,-1.8 -3.09961,-2 z M 174.90039,324 c -0.9,0 -2.40039,0.80078 -3.40039,1.80078 -1,1 -1.79922,2.49883 -1.69922,3.29883 0,0.8 0.79922,2.00117 1.69922,2.70117 1,0.8 2.1,0.89922 3.5,0.19922 1.1,-0.5 2.4,-1.9 3,-3 0.7,-1.4 0.60078,-2.5 -0.19922,-3.5 -0.7,-0.9 -2.00039,-1.6 -2.90039,-1.5 z m 20.5,14.30078 c -0.6,-0.2 -2.10078,1.29844 -3.30078,3.39844 -1.7,3 -1.90039,4 -0.90039,4.5 0.7,0.4 1.90156,0.80078 2.60156,0.80078 0.6,0 2,-1.19961 3,-2.59961 1.2,-1.9 1.39922,-2.99961 0.69922,-4.09961 -0.6,-0.9 -1.49961,-1.8 -2.09961,-2 z M 231,351 c -1.5,0 -2.09922,0.8 -2.19922,3 -0.2,1.6 -0.30078,3.59922 -0.30078,4.19922 0,0.7 0.80078,1.4 1.80078,1.5 0.9,0.2 2.39922,-0.79922 3.19922,-2.19922 1.1,-1.8 1.2,-3 0.5,-4.5 -0.6,-1.1 -1.9,-2 -3,-2 z" />
  <path
     d="m264 187c1.4 0 4.7 1.5 7.5 3.5 2.8 1.9 6.1 4.3 7.5 5.2 1.9 1.4 4.5 1.8 12.1 1.8 8.3 0 10 0.3 11.8 2 1.2 1.1 3.4 5.1 4.9 8.9 1.5 3.8 3.9 7.9 5.4 9.2 1.6 1.3 3.4 2.4 4 2.4 0.7 0 3.4 1.3 6 3 3.6 2.3 4.8 3.6 4.8 5.5 0 1.6-0.6 2.5-1.5 2.5-0.8 0-1.8-0.7-2.3-1.6-0.4-1-3.6-3.2-7.2-4.9-3.6-1.8-7.4-4.4-8.6-5.6-1.1-1.3-3.4-5.5-5-9.3-1.6-3.8-3.6-7.2-4.4-7.7-0.8-0.4-5.3-0.5-10-0.3-7.4 0.5-8.9 0.3-11.5-1.5-1.6-1.1-5.3-3.7-8-5.6-2.8-2-5.4-3.6-6-3.6-0.6 0-3.5 1.7-6.5 3.7-3 2.1-7 4.3-8.8 5.1-2.5 1-4.7 1.1-10.4 0.2-5.3-0.8-7.9-0.8-9.6 0-1.3 0.6-3.5 3.8-5.2 7.6-1.7 3.6-4 7.4-5.3 8.5-1.2 1.1-4.9 3.2-8.2 4.5-3.3 1.4-6.6 3.1-7.3 3.8-1 0.9-1.2 3.8-1 10.7 0.2 7.8 0 10-1.5 12-0.9 1.4-3.3 4.8-5.2 7.5-2.5 3.5-3.4 5.6-2.9 7 0.4 1.1 2.1 3.8 3.8 6 1.7 2.2 3.6 5.7 4.3 7.8 1 2.8 1 5 0.3 9-0.6 2.8-1 7-0.8 9.2 0.2 3.4 0 4-1.7 4-1.8 0-2-0.7-1.9-7 0.1-3.9 0.2-8.8 0.3-11 0.2-3-0.4-4.9-2.4-7.5-1.5-1.9-3.5-4.7-4.4-6.2-0.9-1.6-1.9-2.8-2.4-2.8-0.4 0-0.9 1-1.2 2.3-0.3 1.2-0.5 5.5-0.5 9.5 0 3.9 0.5 9.6 1.1 12.5 0.6 2.8 2.4 7.8 4 11 1.8 3.5 4.1 6.5 6.1 7.7 2 1.2 5.1 2 7.8 2 2.7 0 5.8-0.8 7.8-2 1.7-1.1 4.1-3.5 5.2-5.2 1.1-1.8 2-4.8 2-6.5 0-1.8-1.3-6.6-3-10.5-2.1-5.2-3.6-7.5-5.2-8.1-1.3-0.5-3.4-1.8-4.6-3-1.3-1.2-3-3.4-3.8-4.9-0.8-1.6-1.4-4.6-1.4-6.8 0-2.2 0.4-5 0.9-6.2 0.5-1.3 2.2-3.6 3.7-5.2 1.6-1.5 3.9-3.2 5.1-3.7 1.3-0.5 2.3-1.5 2.3-2.1 0-0.7 1.4-4.2 3.1-7.8 1.7-3.6 4.1-7.8 5.3-9.5 1.5-1.9 2.4-4.8 2.7-8.1 0.3-3.2 1.3-6.4 3-8.8 1.5-2.3 4-4.4 6.2-5.2 2-0.8 5-1.4 6.7-1.4 1.7 0 4.5 0.6 6.2 1.3 2.8 1.2 4.5 1.2 10.7 0.1 5.3-1 9.6-1.1 15-0.4 4.2 0.4 10.3 1.8 13.6 3 3.3 1.1 7.8 3.1 10 4.4 2.2 1.3 6.5 4.6 9.5 7.4 3 2.7 7.2 7.8 9.2 11.3 2.1 3.5 4.1 8.2 4.4 10.4 0.3 2.2 0.1 5.9-0.5 8.3-0.7 2.5-2.6 5.8-4.8 8.1-3 3-15.2 9.7-54.3 29.6-45.9 23.4-51 25.8-55.5 25.8-2.8 0-6.3-0.7-8-1.6-1.7-0.8-4-2.6-5.2-3.9-1.2-1.2-3.5-5.2-5.2-8.8-1.7-3.9-3.4-9.9-4.1-15-1.1-7.1-1-9.9 0.2-17 0.9-4.7 2.7-11 4.1-14 1.4-3 4.6-8.2 7.1-11.5 3.9-5.2 4.5-6.6 4.6-11 0-2.7 0.7-6.1 1.5-7.4 0.8-1.3 4.1-3.4 7.3-4.7 3.1-1.4 6.7-3 8-3.7 1.3-0.7 3.4-3.8 5-7.6 1.5-3.5 4-7.5 5.7-8.9 2.8-2.3 3.3-2.4 23-1.1l5.5-3.8c3.1-2.1 6.2-4.2 7-4.5 0.8-0.4 2.6-0.7 4-0.8z"
     id="path73" />
  <path
     class="a"
     d="m263.4 191c0.6-0.1 3.4 1.5 6.1 3.5 2.8 1.9 6.4 4.5 8 5.6 2.6 1.8 4.1 2 11.5 1.5 4.7-0.2 9.2-0.1 10 0.3 0.8 0.5 2.8 3.9 4.4 7.7 1.6 3.8 3.6 7.6 4.3 8.4 0.7 0.8 1.1 1.8 0.8 2.3-0.3 0.4-3-1.3-6-3.8-3-2.5-7.2-5.3-9.2-6.4-2.1-1-6-2.6-8.8-3.5-2.7-1-8.4-2.1-12.5-2.6-5.3-0.7-9.7-0.5-15 0.4-6.2 1.1-8 1.1-10.7-0.1-1.8-0.7-4.6-1.3-6.3-1.3-1.6 0-4.5 0.6-6.2 1.3-1.8 0.7-4.6 3.1-6.3 5.2-2.2 2.8-3.1 5.3-3.4 8.9-0.3 3.3-1.2 6.2-2.7 8.1-1.2 1.7-3.6 5.9-5.3 9.5-1.7 3.6-3.1 7.1-3.1 7.8 0 0.6-1 1.6-2.2 2.1-1.3 0.5-3.6 2.2-5.2 3.7-1.5 1.6-3.2 3.9-3.7 5.2-0.5 1.2-0.9 4-0.9 6.2 0 2.2 0.6 5.2 1.4 6.8 0.8 1.5 2.5 3.7 3.8 4.9 1.2 1.2 3.3 2.5 4.6 3 1.6 0.6 3.1 2.9 5.2 8 1.7 4 3 8.8 3 10.5 0 1.8-0.9 4.8-2 6.5-1.1 1.8-3.5 4.2-5.2 5.3-2 1.2-5.1 2-7.8 2-2.7 0-5.8-0.8-7.7-2-2.1-1.2-4.4-4.2-6.2-7.8-1.6-3.1-3.4-8.1-4-11-0.6-2.8-1.1-8.5-1.1-12.5 0-3.9 0.2-8.2 0.5-9.5 0.3-1.2 0.8-2.2 1.3-2.2 0.4 0 1.4 1.2 2.3 2.8 0.9 1.5 2.9 4.3 4.4 6.2 2 2.6 2.6 4.5 2.4 7.5-0.1 2.2-0.2 7.1-0.3 11-0.1 6.3 0.1 7 1.9 7 1.7 0 1.9-0.6 1.7-4-0.2-2.2 0.2-6.4 0.8-9.3 0.7-3.9 0.7-6.1-0.3-8.9-0.7-2.1-2.6-5.6-4.3-7.8-1.7-2.2-3.4-4.9-3.8-6-0.5-1.4 0.4-3.5 2.9-7 1.9-2.7 4.3-6.1 5.2-7.5 1.5-2 1.7-4.2 1.5-12-0.2-6.9 0-9.8 1-10.7 0.7-0.7 4-2.4 7.3-3.8 3.3-1.3 7-3.4 8.3-4.5 1.2-1.1 3.6-4.9 5.2-8.5 2.1-4.6 3.8-6.8 5.7-7.6 2-0.8 4.6-0.8 9.5 0 5.4 0.9 7.5 0.8 10.1-0.2 1.7-0.8 5.6-3 8.6-5 2.9-2 5.9-3.7 6.5-3.7z"
     id="path75" />
  <path
     d="m212.4 229.2c1.3 0.2 2.1 1 2.1 2.3 0 1.2-0.8 2.1-2 2.3-1.1 0.2-2.3-0.4-2.8-1.2-0.4-0.9-0.4-2.1-0.1-2.7 0.4-0.5 1.6-0.9 2.8-0.7z"
     id="path77" />
  <path
     class="a"
     d="m240.3 207c0.9 0 1.7 0.4 1.7 1 0 0.6-1.5 1.7-3.3 2.6-1.7 0.9-4.4 2.7-6 4-1.5 1.3-2.9 2-3.2 1.4-0.3-0.6 0.2-2.2 1.2-3.6 0.9-1.4 3-3.2 4.7-3.9 1.7-0.8 3.9-1.4 4.8-1.5zm27.8 1.3c8.1 0.3 11.9 0.9 16.5 2.7 3.3 1.3 8.7 4.2 12 6.5 3.5 2.4 8.2 6.9 11.3 11 2.9 3.9 5.7 8.7 6.2 10.8 0.6 2 0.7 5.4 0.3 7.4-0.4 2.1-1.6 5.1-2.8 6.8-1.6 2.3-11.7 7.9-44.5 24.7-23.4 12-43 21.8-43.5 21.8-0.6 0-1-2.8-1.1-6.3 0-4.5-0.8-7.9-2.7-12.2-1.4-3.3-3.1-8.7-3.8-12-0.6-3.3-0.9-9.4-0.6-13.5 0.3-4.1 1.6-10.4 2.9-14 1.3-3.6 4.4-9.4 6.9-13 2.5-3.6 6.8-8.1 9.5-10.1 2.7-2 6.5-4.5 8.4-5.4 1.9-1 6-2.7 9-3.7 4.3-1.4 7.8-1.7 16-1.5zm-57.3 45c0.2 1.2-0.1 2.6-0.7 3.2-0.6 0.6-1 2.4-1 4-0.1 1.6 0.6 4.4 1.4 6 0.8 1.6 1.2 3.4 0.9 4-0.3 0.6-1.9-0.5-3.5-2.3-2-2.3-2.8-4.3-2.8-7 0-2 0.7-4.8 1.7-6.2 0.9-1.4 2.1-2.8 2.7-3.2 0.6-0.5 1.1 0.2 1.3 1.5z"
     id="path79" />
  <path
     d="m299 240c1.1 0 2.2 0.6 2.4 1.3 0.1 0.6 0.1 1.8 0 2.5-0.2 0.6-1.3 1.2-2.4 1.2-1.1 0-2.2-0.4-2.5-1-0.3-0.6-0.3-1.7 0-2.5 0.2-0.8 1.4-1.5 2.5-1.5zm-10.9 2.1c1.1 0.5 2 1.2 2 1.4-0.1 0.3-0.3 1.2-0.6 2-0.3 0.8-1.4 1.5-2.5 1.5-1.1 0-2.2-0.7-2.5-1.5-0.3-0.8 0-2.2 0.6-3 0.8-1.1 1.6-1.2 3-0.4zm7.8 8.1c0.9 0.2 1.7 1.3 1.9 2.6 0.1 1.7-0.3 2.2-2.3 2.2-1.7 0-2.6-0.6-2.7-1.8-0.1-1 0.3-2.2 0.7-2.6 0.5-0.4 1.6-0.5 2.4-0.4z"
     id="path81" />
</svg>
